ffmpeg started on 2016-11-27 at 23:09:46
Report written to "Output/NVENCh264/results/ffmpeg/sintelllhp4000k.log"
Command line:
Tools/ffmpeg/ffmpeg -benchmark -y -i Input/y4m/sintel.y4m -c:v h264_nvenc -preset llhp -b:v 4000k -an Output/NVENCh264/encoded/sintelllhp4000k.mkv
ffmpeg version N-82227-gdb23fde Copyright (c) 2000-2016 the FFmpeg developers
  built with gcc 5.4.0 (Ubuntu 5.4.0-6ubuntu1~16.04.2) 20160609
  configuration: --prefix=/home/jaroslav/ffmpeg_build --pkg-config-flags=--static --extra-cflags=-I/home/jaroslav/ffmpeg_build/include --extra-ldflags=-L/home/jaroslav/ffmpeg_build/lib --bindir=/home/jaroslav/bin --enable-gpl --enable-libass --enable-libfdk-aac --enable-libfreetype --enable-libmp3lame --enable-libopus --enable-libtheora --enable-libvorbis --enable-libvpx --enable-libx264 --enable-libx265 --enable-nvenc --enable-libmfx --enable-libxvid --enable-libgsm --enable-libopencore-amrnb --enable-version3 --enable-nonfree
  libavutil      55. 35.100 / 55. 35.100
  libavcodec     57. 66.101 / 57. 66.101
  libavformat    57. 57.100 / 57. 57.100
  libavdevice    57.  2.100 / 57.  2.100
  libavfilter     6. 66.100 /  6. 66.100
  libswscale      4.  3.100 /  4.  3.100
  libswresample   2.  4.100 /  2.  4.100
  libpostproc    54.  2.100 / 54.  2.100
Input #0, yuv4mpegpipe, from 'Input/y4m/sintel.y4m':
  Duration: 00:00:20.83, start: 0.000000, bitrate: 2057307 kb/s
    Stream #0:0: Video: rawvideo (I420 / 0x30323449), yuv420p(progressive), 4096x1744, SAR 1:1 DAR 256:109, 24 fps, 24 tbr, 24 tbn, 24 tbc
[h264_nvenc @ 0x330e1c0] The variable bitrate rate-control requires the 'qmin' and/or 'qmax' option set.
Output #0, matroska, to 'Output/NVENCh264/encoded/sintelllhp4000k.mkv':
  Metadata:
    encoder         : Lavf57.57.100
    Stream #0:0: Video: h264 (h264_nvenc) (Main) (H264 / 0x34363248), yuv420p, 4096x1744 [SAR 1:1 DAR 256:109], q=-1--1, 4000 kb/s, 24 fps, 1k tbn, 24 tbc
    Metadata:
      encoder         : Lavc57.66.101 h264_nvenc
    Side data:
      cpb: bitrate max/min/avg: 0/0/4000000 buffer size: 8000000 vbv_delay: -1
Stream mapping:
  Stream #0:0 -> #0:0 (rawvideo (native) -> h264 (h264_nvenc))
Press [q] to stop, [?] for help
frame=   21 fps=0.0 q=0.0 size=       0kB time=00:00:00.00 bitrate=N/A speed=   0x    frame=   36 fps= 33 q=41.0 size=       1kB time=00:00:00.20 bitrate=  28.6kbits/s speed=0.194x    frame=   57 fps= 36 q=47.0 size=       1kB time=00:00:01.08 bitrate=   5.5kbits/s speed=0.685x    frame=   78 fps= 37 q=44.0 size=       1kB time=00:00:01.95 bitrate=   3.1kbits/s speed=0.934x    frame=   99 fps= 38 q=45.0 size=       1kB time=00:00:02.83 bitrate=   2.1kbits/s speed=1.09x    frame=  120 fps= 39 q=41.0 size=       1kB time=00:00:03.70 bitrate=   1.6kbits/s speed=1.19x    frame=  141 fps= 39 q=36.0 size=       1kB time=00:00:04.58 bitrate=   1.3kbits/s speed=1.26x    frame=  161 fps= 22 q=43.0 size=    2248kB time=00:00:05.41 bitrate=3398.6kbits/s speed=0.725x    frame=  162 fps= 15 q=43.0 size=    2248kB time=00:00:05.45 bitrate=3373.0kbits/s speed=0.496x    frame=  163 fps= 12 q=43.0 size=    2248kB time=00:00:05.50 bitrate=3347.3kbits/s speed=0.408x    frame=  184 fps= 13 q=42.0 size=    2248kB time=00:00:06.37 bitrate=2887.9kbits/s speed=0.456x    frame=  205 fps= 14 q=39.0 size=    2248kB time=00:00:07.25 bitrate=2539.4kbits/s speed= 0.5x    frame=  226 fps= 15 q=38.0 size=    2248kB time=00:00:08.12 bitrate=2266.0kbits/s speed=0.541x    frame=  247 fps= 16 q=40.0 size=    2248kB time=00:00:09.00 bitrate=2045.7kbits/s speed=0.58x    frame=  268 fps= 17 q=37.0 size=    4713kB time=00:00:09.87 bitrate=3909.3kbits/s speed=0.616x    frame=  289 fps= 17 q=34.0 size=    4713kB time=00:00:10.75 bitrate=3591.1kbits/s speed=0.65x    frame=  310 fps= 18 q=38.0 size=    5343kB time=00:00:11.62 bitrate=3764.6kbits/s speed=0.681x    frame=  331 fps= 19 q=37.0 size=    5343kB time=00:00:12.50 bitrate=3501.1kbits/s speed=0.711x    frame=  352 fps= 19 q=34.0 size=    5343kB time=00:00:13.37 bitrate=3272.0kbits/s speed=0.74x    frame=  373 fps= 20 q=32.0 size=    5343kB time=00:00:14.25 bitrate=3071.1kbits/s speed=0.766x    frame=  385 fps= 20 q=32.0 size=    5343kB time=00:00:14.75 bitrate=2967.0kbits/s speed=0.772x    frame=  406 fps= 21 q=35.0 size=    5343kB time=00:00:15.62 bitrate=2800.9kbits/s speed=0.796x    frame=  427 fps= 21 q=36.0 size=    7781kB time=00:00:16.50 bitrate=3862.8kbits/s speed=0.819x    frame=  448 fps= 22 q=32.0 size=    7781kB time=00:00:17.37 bitrate=3668.3kbits/s speed=0.841x    frame=  469 fps= 22 q=36.0 size=    8432kB time=00:00:18.25 bitrate=3784.5kbits/s speed=0.862x    frame=  490 fps= 23 q=34.0 size=    8432kB time=00:00:19.12 bitrate=3611.4kbits/s speed=0.882x    frame=  500 fps= 23 q=36.0 Lsize=   10095kB time=00:00:20.79 bitrate=3977.1kbits/s speed=0.947x    
video:10090kB audio:0kB subtitle:0kB other streams:0kB global headers:0kB muxing overhead: 0.046738%
bench: utime=0.888s
bench: maxrss=1189148kB
